<svg xmlns="http://www.w3.org/2000/svg" width="36" height="36" viewBox="0 0 36 36"><defs><style>.a{fill:none;}.b{fill:#fff;}</style></defs><g transform="translate(0)"><path class="a" d="M215.367,215.367,208,208" transform="translate(-193.683 -193.683)"/><path class="b" d="M201.441,202.668a1.224,1.224,0,0,1-.868-.36L193.36,195.1a1.228,1.228,0,0,1,1.736-1.736l7.213,7.213a1.228,1.228,0,0,1-.868,2.1Z" transform="translate(-179.835 -179.834)"/><path class="b" d="M129.022,144.354a1.022,1.022,0,0,1-.949-1.4l4.089-10.222a1.022,1.022,0,0,1,.569-.569l10.222-4.089a1.022,1.022,0,0,1,1.329,1.329l-4.089,10.222a1.022,1.022,0,0,1-.569.569L129.4,144.281A1.02,1.02,0,0,1,129.022,144.354ZM133.9,133.9l-3.04,7.6,7.6-3.04,3.04-7.6Z" transform="translate(-118.177 -118.177)"/><path class="b" d="M18,36A18,18,0,0,1,5.272,5.272,18,18,0,0,1,30.728,30.728,17.882,17.882,0,0,1,18,36ZM18,2.25A15.75,15.75,0,1,0,33.75,18,15.768,15.768,0,0,0,18,2.25Z"/></g></svg>