<svg xmlns="http://www.w3.org/2000/svg" width="46.343" height="23.172" viewBox="0 0 46.343 23.172"><defs><style>.a{fill:#fff;}</style></defs><g transform="translate(0 -128)"><g transform="translate(3.862 141.517)"><path class="a" d="M47.494,277.333a4.827,4.827,0,1,0,4.827,4.827A4.834,4.834,0,0,0,47.494,277.333Zm0,7.724a2.9,2.9,0,1,1,2.9-2.9A2.9,2.9,0,0,1,47.494,285.057Z" transform="translate(-42.667 -277.333)"/></g><g transform="translate(32.827 141.517)"><path class="a" d="M367.494,277.333a4.827,4.827,0,1,0,4.827,4.827A4.834,4.834,0,0,0,367.494,277.333Zm0,7.724a2.9,2.9,0,1,1,2.9-2.9A2.9,2.9,0,0,1,367.494,285.057Z" transform="translate(-362.667 -277.333)"/></g><g transform="translate(0 128)"><path class="a" d="M40.55,135.724H38.917a2.644,2.644,0,0,1-1.649-.579l-7.608-6.086A4.854,4.854,0,0,0,26.643,128H12.686a4.818,4.818,0,0,0-4.016,2.149l-1.643,2.468a2.644,2.644,0,0,1-2.2,1.176A4.834,4.834,0,0,0,0,138.62v3.862a4.834,4.834,0,0,0,4.827,4.827.965.965,0,1,0,0-1.931,2.9,2.9,0,0,1-2.9-2.9V138.62a2.9,2.9,0,0,1,2.9-2.9,4.564,4.564,0,0,0,3.806-2.037l1.643-2.466a2.894,2.894,0,0,1,2.41-1.29H26.643a2.914,2.914,0,0,1,1.811.635l7.608,6.084a4.578,4.578,0,0,0,2.856,1H40.55c2.833,0,3.862,2.887,3.862,4.827a2.8,2.8,0,0,1-2.9,2.9.966.966,0,0,0,0,1.931,4.722,4.722,0,0,0,4.827-4.827C46.343,139.205,44.314,135.724,40.55,135.724Z" transform="translate(0 -128)"/></g><g transform="translate(11.586 145.379)"><path class="a" d="M150.206,320H128.966a.966.966,0,0,0,0,1.931h21.241a.966.966,0,1,0,0-1.931Z" transform="translate(-128 -320)"/></g><g transform="translate(21.241 131.862)"><path class="a" d="M245.286,174.528H236.6v-2.9a.966.966,0,1,0-1.931,0v3.862a.966.966,0,0,0,.966.966h9.655a.966.966,0,0,0,0-1.931Z" transform="translate(-234.666 -170.666)"/></g><g transform="translate(9.655 131.862)"><path class="a" d="M115.358,174.533H109.2l1.234-2.464a.966.966,0,0,0-1.728-.863l-1.931,3.862a.965.965,0,0,0,.863,1.4h7.724a.966.966,0,0,0,0-1.931Z" transform="translate(-106.668 -170.671)"/></g><g transform="translate(23.172 139.586)"><path class="a" d="M258.9,256h-1.931a.966.966,0,0,0,0,1.931H258.9a.966.966,0,1,0,0-1.931Z" transform="translate(-256 -256)"/></g></g></svg>