<svg xmlns="http://www.w3.org/2000/svg" width="38.168" height="34.67" viewBox="0 0 38.168 34.67"><defs><style>.a{fill:#fff;}</style></defs><g transform="translate(0.001 -23.462)"><g transform="translate(34.857 46.22)"><path class="a" d="M470.677,330.772l-1.82-1.8a.746.746,0,0,0-1.05,1.059l1.82,1.8a.746.746,0,0,0,1.05-1.059Z" transform="translate(-467.587 -328.751)"/></g><g transform="translate(32.999 44.372)"><path class="a" d="M443.949,304.17a.746.746,0,0,0-1.054,0h0a.746.746,0,1,0,1.056,0Z" transform="translate(-442.675 -303.952)"/></g><g transform="translate(0 23.462)"><g transform="translate(0 0)"><path class="a" d="M27.917,48.028l7.233-7.233a2.808,2.808,0,0,0-1.355-4.723,2.811,2.811,0,0,0-2.071-3.953,2.805,2.805,0,0,0-2.188-3.647,2.811,2.811,0,0,0-4.01-3.352l-.072-.077a4.976,4.976,0,0,0-3.631-1.581H15.967a.746.746,0,0,0-.746.746v.978a3.387,3.387,0,0,0,.193,1.13,2.81,2.81,0,0,0-3.745,3.478,2.81,2.81,0,0,0-2.191,3.647,2.81,2.81,0,0,0-2.069,3.951,2.81,2.81,0,0,0-1.355,4.725L7.541,43.6.218,50.927a.746.746,0,1,0,1.054,1.055l7.394-7.394a2.808,2.808,0,0,0,4.194-2.557l.113,0a2.807,2.807,0,0,0,2.81-2.808c0-.038,0-.076,0-.113l.112,0a2.807,2.807,0,0,0,2.81-2.808c0-.038,0-.076,0-.113l.112,0a2.808,2.808,0,0,0,2.173-4.589l4.949-4.949A1.318,1.318,0,1,1,27.8,28.522l-.73.73L24.421,31.9a.746.746,0,1,0,1.054,1.055l2.648-2.648a1.318,1.318,0,1,1,1.865,1.865l-.73.73L27.34,34.819a.746.746,0,1,0,1.054,1.055l1.918-1.918a1.318,1.318,0,1,1,1.865,1.865l-1,1-.916.916a.746.746,0,1,0,1.054,1.055l.917-.917a1.319,1.319,0,0,1,1.864,1.865l-7.233,7.233a10.1,10.1,0,0,1-6.8,2.961.745.745,0,0,0-.5.219L12.881,56.86a.746.746,0,1,0,1.056,1.053l4.915-4.933a6.93,6.93,0,0,0,4.209,1.083l3.846,3.847a.746.746,0,1,0,1.054-1.055l-4.09-4.09a.746.746,0,0,0-.588-.216l-.236.019a5.443,5.443,0,0,1-3.111-.677l.479-.481A11.585,11.585,0,0,0,27.917,48.028Zm-16.93-4.951a1.318,1.318,0,0,1-1.865,0L7.108,41.063A1.319,1.319,0,1,1,8.972,39.2l2.015,2.015A1.32,1.32,0,0,1,10.987,43.077Zm2.919-2.919a1.32,1.32,0,0,1-1.865,0l-2.015-2.015-1-1a1.318,1.318,0,1,1,1.865-1.865l3.016,3.016h0a1.319,1.319,0,0,1,0,1.865Zm2.919-2.919a1.32,1.32,0,0,1-1.865,0l-3.746-3.746a1.318,1.318,0,0,1,1.864-1.865l1.707,1.707,2.039,2.039h0a1.319,1.319,0,0,1,0,1.865Zm2.919-2.919a1.32,1.32,0,0,1-1.865,0l-3.746-3.746h0l-.729-.729a1.319,1.319,0,0,1,1.865-1.865l4.476,4.476a1.319,1.319,0,0,1,0,1.865Zm.2-3.777-2.048-2.048a3.412,3.412,0,0,0,.714.076h.016l2.046-.01a.746.746,0,0,0,0-1.491h0l-2.046.01h-.009a1.894,1.894,0,0,1-1.894-1.894v-.232h5.109a3.48,3.48,0,0,1,2.539,1.106l.03.033Z" transform="translate(0 -23.462)"/></g></g></g></svg>